<svg width="595" height="124" viewBox="0 0 595 124" fill="none" xmlns="http://www.w3.org/2000/svg">
<path d="M0.00937678 83.9408C-0.0874441 82.6508 0.569645 81.3708 1.78992 80.7352C32.8882 64.4663 59.3973 62.2504 72.4203 62.376C108.533 62.7373 141.654 75.1998 154.123 79.8886C155.212 80.3026 156.302 80.7166 157.391 81.1306C167.09 84.8548 176.258 88.3709 188.818 87.4059C198.904 86.6367 210.023 82.3463 222.813 74.2955C228.057 71.0008 231.855 67.9961 235.186 65.2461C247.825 54.7935 254.992 47.5193 261.317 41.1001C265.994 36.3504 270.406 31.8688 276.318 26.8067C291.771 13.5856 312.922 -4.50962 334.579 1.02305C340.673 2.57677 346.31 5.91056 351.358 10.9294C351.41 10.9827 351.461 11.0361 351.514 11.0989C358.353 18.9017 359.316 28.1678 359.458 30.8184C360.962 61.0292 310.757 84.7658 305.032 87.3719C298.541 90.3217 292.227 92.5715 286.656 94.5555C274.835 98.7558 266.301 101.793 265.189 107.8C265.182 107.839 264.51 111.591 266.436 114.126C270.274 119.16 282.78 116.968 287.485 116.146C335.344 107.753 370.691 93.4728 371.042 93.3224C395.891 83.7244 414.312 74.7345 414.496 74.6443L419.213 72.3336C445.024 59.6679 469.4 47.7113 502.411 39.0058C517.574 35.0021 532.941 33.8447 548.114 35.5636C571.403 38.1975 588.198 51.2409 593.716 55.528C595.164 56.659 595.426 58.7474 594.305 60.1959C593.174 61.6451 591.087 61.9073 589.639 60.7858C584.486 56.786 568.804 44.6031 547.37 42.1633C533.024 40.5348 518.472 41.6307 504.112 45.4213C471.748 53.9637 448.76 65.2434 422.149 78.2937L417.422 80.6051C417.238 80.6953 398.55 89.8102 373.497 99.4903C373.202 99.6175 337.235 114.155 288.633 122.68C281.755 123.885 267.433 126.394 261.14 118.14C257.577 113.467 258.429 107.67 258.642 106.567C260.454 96.796 271.03 93.0328 284.42 88.266C289.862 86.33 296.036 84.1289 302.268 81.2938C321.526 72.5271 353.848 52.112 352.798 31.1387C352.689 29.0389 351.93 21.732 346.577 15.5629C342.406 11.4414 337.816 8.71559 332.926 7.46223C314.614 2.78425 294.977 19.5827 280.634 31.852C274.936 36.7262 270.623 41.1147 266.051 45.7515C259.62 52.2835 252.32 59.6917 239.422 70.3643C235.921 73.2607 231.915 76.4145 226.353 79.9145C212.625 88.5604 200.51 93.1739 189.325 94.0354C175.277 95.1125 164.97 91.1575 155.006 87.3387C153.936 86.9233 152.866 86.5174 151.787 86.1122C139.612 81.5348 107.286 69.3749 72.3564 69.0199C59.9532 68.8953 34.6861 71.0176 4.87228 86.6175C3.23892 87.4655 1.23779 86.8435 0.381101 85.2101C0.168942 84.7969 0.0407011 84.3582 0.00795292 83.9219L0.00937678 83.9408Z" fill="white" fill-opacity="0.03"/>
<path d="M354.391 53.3906H365.172V48H349V64.1719H354.391V53.3906Z" fill="white"/>
<path d="M401.828 48V53.3906H412.609V64.1719H418V48H401.828Z" fill="white"/>
<path d="M354.391 100.828H349V117H365.172V111.609H354.391V100.828Z" fill="white"/>
<path d="M412.609 111.609H401.828V117H418V100.828H412.609V111.609Z" fill="white"/>
<path d="M359.242 79.8047H380.805V58.2422H359.242V79.8047ZM364.633 63.6328H375.414V74.4141H364.633V63.6328Z" fill="white"/>
<path d="M407.758 58.2422H386.195V79.8047H407.758V58.2422ZM402.367 74.4141H391.586V63.6328H402.367V74.4141Z" fill="white"/>
<path d="M359.242 106.758H380.805V85.1953H359.242V106.758ZM364.633 90.5859H375.414V101.367H364.633V90.5859Z" fill="white"/>
<path d="M391.586 90.5859V85.1953H386.195V95.9766H391.586V101.367H396.977V90.5859H391.586Z" fill="white"/>
<path d="M396.977 101.367H407.758V106.758H396.977V101.367Z" fill="white"/>
<path d="M402.367 95.9766H407.758V85.1953H396.977V90.5859H402.367V95.9766Z" fill="white"/>
<path d="M386.195 101.367H391.586V106.758H386.195V101.367Z" fill="white"/>
</svg>
